HIERARCHY
ROOT Hips
{
	OFFSET 0.0000 0.0000 0.0000
	CHANNELS 6 Xposition Yposition Zposition Zrotation Xrotation Yrotation
	JOINT Ab
	{
		OFFSET -0.0000 8.0846 -0.0000
		CHANNELS 3 Zrotation Xrotation Yrotation
		JOINT Chest
		{
			OFFSET -0.0000 25.0068 -0.0000
			CHANNELS 3 Zrotation Xrotation Yrotation
			JOINT Neck
			{
				OFFSET -0.0000 25.0068 0.0000
				CHANNELS 3 Zrotation Xrotation Yrotation
				JOINT Head
				{
					OFFSET -0.0000 10.7556 0.0000
					CHANNELS 3 Zrotation Xrotation Yrotation
					End Site
					{
						OFFSET -0.0000 16.6222 0.0000
					}
				}
			}
			JOINT LeftCollar
			{
				OFFSET -0.0000 25.0068 0.0000
				CHANNELS 3 Zrotation Xrotation Yrotation
				JOINT LeftShoulder
				{
					OFFSET 19.5556 -0.0000 0.0000
					CHANNELS 3 Zrotation Xrotation Yrotation
					JOINT LeftElbow
					{
						OFFSET 27.1828 0.0000 0.0000
						CHANNELS 3 Zrotation Xrotation Yrotation
						JOINT LeftWrist
						{
							OFFSET 23.3157 0.0000 0.0000
							CHANNELS 3 Zrotation Xrotation Yrotation
							End Site
							{
								OFFSET 0.0000 -14.6667 0.0000
							}
						}
					}
				}
			}
			JOINT RightCollar
			{
				OFFSET -0.0000 25.0068 0.0000
				CHANNELS 3 Zrotation Xrotation Yrotation
				JOINT RightShoulder
				{
					OFFSET -19.5556 0.0000 0.0000
					CHANNELS 3 Zrotation Xrotation Yrotation
					JOINT RightElbow
					{
						OFFSET -27.1828 0.0000 0.0000
						CHANNELS 3 Zrotation Xrotation Yrotation
						JOINT RightWrist
						{
							OFFSET -23.3157 0.0000 0.0000
							CHANNELS 3 Zrotation Xrotation Yrotation
							End Site
							{
								OFFSET -0.0000 -14.6667 0.0000
							}
						}
					}
				}
			}
		}
	}
	JOINT LeftHip
	{
		OFFSET 11.7333 0.0000 0.0000
		CHANNELS 3 Zrotation Xrotation Yrotation
		JOINT LeftKnee
		{
			OFFSET -0.0000 -40.8688 0.0000
			CHANNELS 3 Zrotation Xrotation Yrotation
			JOINT LeftAnkle
			{
				OFFSET -0.0000 -44.4337 0.0000
				CHANNELS 3 Zrotation Xrotation Yrotation
				End Site
				{
					OFFSET -0.0000 -4.8889 16.6222
				}
			}
		}
	}
	JOINT RightHip
	{
		OFFSET -11.7333 0.0000 0.0000
		CHANNELS 3 Zrotation Xrotation Yrotation
		JOINT RightKnee
		{
			OFFSET -0.0000 -40.8688 0.0000
			CHANNELS 3 Zrotation Xrotation Yrotation
			JOINT RightAnkle
			{
				OFFSET -0.0000 -44.4337 0.0000
				CHANNELS 3 Zrotation Xrotation Yrotation
				End Site
				{
					OFFSET -0.0000 -4.8889 16.6222
				}
			}
		}
	}
}
MOTION
Frames: 21
Frame Time: 0.010000
-6.9912 87.0842 106.5240 2.0722 0.1157 178.3520 358.6167 6.0909 355.7512 3.6349 11.2602 355.3192 4.3686 356.6555 0.8064 356.0743 22.6771 1.4647 339.7010 359.3513 3.7366 307.9911 28.9689 345.8004 15.6111 354.3888 321.2912 83.0976 359.8271 339.6499 20.6240 358.6512 352.5725 67.2747 35.6054 357.9100 342.8783 355.4504 29.6193 279.1610 352.9836 26.2684 0.1375 6.1242 357.0571 358.2397 7.4780 355.0932 359.0043 348.7039 21.1302 358.8683 333.2499 5.8779 0.5734 22.0538 0.9697 1.6380 353.9192 343.1388 
-6.8798 87.0217 106.2024 1.9655 0.2316 178.7272 358.7108 6.4183 355.6053 3.6302 11.2338 355.1763 4.3648 356.5734 0.6595 356.2283 22.7121 1.2748 339.7164 359.3242 3.6460 308.3233 29.4464 345.4106 15.9826 354.2423 321.2470 82.8264 359.6176 340.0395 20.6131 358.6180 352.4001 67.3940 35.6925 357.8925 342.8580 355.4067 29.6528 279.2407 352.9832 26.3889 0.1156 6.3995 356.8433 358.2966 7.4821 355.0240 359.0771 348.6184 21.0950 358.6135 333.3391 5.7126 0.7305 21.6012 0.4846 1.7211 353.5099 343.1116 
-6.7608 86.9581 105.8846 1.8022 0.1316 178.8952 358.7276 6.4959 355.5618 3.5825 11.2426 355.1370 4.4238 356.5648 0.6681 356.1534 22.7479 1.3079 339.7362 359.3255 3.6643 308.5198 29.4201 345.1431 15.9954 354.2889 321.0522 83.0591 359.5373 340.3339 20.6281 358.6506 352.4586 67.4797 35.6534 357.8123 342.9714 355.4711 29.7361 279.2961 352.9864 26.3963 0.0391 6.4996 356.8175 358.3068 7.4621 355.0096 358.5889 348.3602 20.7939 358.4371 333.1320 5.6755 0.8906 21.3523 359.5527 1.4576 353.2052 343.4808 
-6.6250 86.8880 105.5545 1.6681 0.0501 179.0662 358.7703 6.5804 355.5208 3.5524 11.2733 355.0996 4.4207 356.5739 0.6260 356.2182 22.6805 1.2482 339.6133 359.2645 4.3068 309.8030 32.0227 343.6931 17.5397 353.5407 321.9383 82.4670 359.2189 341.9671 20.6020 358.6142 352.4525 67.6754 35.8018 357.7156 342.7691 355.3783 29.9127 279.5337 353.2272 26.1797 0.0043 6.6278 356.8503 358.3438 7.4495 354.8688 358.2090 348.0435 20.6804 358.3332 332.9483 5.5369 0.7284 21.1163 0.1562 1.5249 352.8314 342.7514 
-6.4885 86.8189 105.2134 1.4976 359.9260 179.2360 358.8050 6.6333 355.4779 3.5012 11.2777 355.0631 4.4472 356.6030 0.5845 356.1961 22.6487 1.2094 339.5863 359.2426 4.2767 310.1219 32.2241 343.3974 17.7758 353.6168 321.8822 82.5850 359.1258 342.5682 20.6101 358.6413 352.4137 67.7453 35.8743 357.7139 342.8806 355.3819 29.9345 279.4419 353.2743 26.0793 359.9364 6.7128 356.6839 358.3525 7.4482 354.8636 357.9830 347.7424 20.8076 358.1851 332.7485 5.3575 0.7083 20.9976 0.1272 1.3797 352.6197 342.6235 
-6.3530 86.7405 104.8619 1.3223 359.8761 179.3474 358.8484 6.7838 355.4890 3.4221 11.2881 355.0821 4.4875 356.5574 0.5690 356.2137 22.6775 1.1914 339.5918 359.2150 4.3129 310.3914 32.4609 343.0535 17.9968 353.6013 321.7901 82.5961 359.1131 342.8013 20.5911 358.6239 352.4264 67.9152 35.9736 357.6508 342.7060 355.3326 30.0067 279.5676 353.2755 25.8215 359.8549 6.9325 356.6015 358.3700 7.3656 354.8673 358.0897 347.6817 20.7074 358.0440 332.6005 5.2855 0.9262 20.9119 359.1656 0.8200 352.2672 342.8959 
-6.1973 86.6648 104.5050 1.1492 359.7582 179.4827 358.8874 6.8714 355.4756 3.3774 11.2755 355.0756 4.3429 356.5371 0.5089 356.5367 22.6934 1.0662 339.5697 359.2414 4.3345 310.7627 32.8019 342.6596 18.1708 353.5720 321.7656 82.6379 359.0244 343.1371 20.5734 358.5980 352.3818 68.0459 36.0748 357.6198 342.6406 355.3273 29.9753 279.5775 353.1370 25.6708 359.8064 7.0562 356.5061 358.3667 7.3454 354.7192 358.0537 347.4634 20.7981 357.9638 332.4398 5.1531 0.8538 20.8307 359.1652 1.1676 352.0864 342.5952 
-6.0287 86.5886 104.1470 0.9746 359.6323 179.6350 358.8800 6.9631 355.4905 3.3848 11.2987 355.0874 4.4002 356.4749 0.4578 356.5164 22.6932 1.0109 339.5356 359.2044 4.4172 311.2171 33.3753 342.1431 18.7149 353.3334 321.8411 82.4267 358.9585 343.9850 20.5290 358.6322 352.3553 68.1742 36.0911 357.6550 342.6547 355.3125 30.0518 279.4798 353.3524 25.5016 359.7515 7.1596 356.4364 358.4033 7.3265 354.7039 357.7875 347.1217 20.8026 357.8730 332.2563 5.0978 0.8789 20.8370 359.0273 1.5147 351.6600 342.6415 
-5.8509 86.5099 103.7791 0.7962 359.4832 179.7991 358.8907 7.0407 355.4906 3.3820 11.3093 355.0874 4.4282 356.4778 0.3945 356.5399 22.6173 0.9383 339.4794 359.1719 4.5750 311.8494 34.3377 341.5082 19.0169 353.2816 322.0769 83.5538 358.7517 344.7140 20.5042 358.6073 352.3343 68.2984 36.1278 357.6423 342.4833 355.2532 30.1143 279.5549 353.2867 25.2304 359.7077 7.2244 356.2841 358.4007 7.3477 354.9031 357.8094 346.9894 20.4871 357.7690 332.1207 5.0522 0.8790 20.8580 359.2223 1.4124 351.6479 342.4676 
-5.6755 86.4330 103.3997 0.5902 359.3222 179.9516 358.9007 7.0972 355.5003 3.3567 11.3537 355.0984 4.4879 356.3833 0.3383 356.4897 22.6271 0.8838 339.4780 359.1718 4.5337 312.0809 34.4957 341.2619 19.2118 353.2427 321.9753 83.5203 358.7674 345.1357 20.4451 358.5807 352.2880 68.4369 36.3278 357.6977 342.3515 355.2332 30.0043 279.4403 353.1972 25.0235 359.6306 7.2943 356.1546 358.4219 7.3849 354.6701 357.7936 346.7170 20.6386 357.6596 331.9521 4.9811 0.7177 21.0449 0.1314 1.7050 351.6044 342.1094 
-5.4747 86.3459 102.9993 0.4102 359.2213 180.1359 358.9071 7.2138 355.5068 3.3661 11.4024 355.1022 4.4808 356.2389 0.1946 356.5826 22.7133 0.7709 339.4662 359.1708 4.5605 312.4114 34.8280 340.8881 19.4497 353.1645 321.9610 83.5383 358.6724 345.3578 20.4368 358.6307 352.2614 68.4647 36.3956 357.7699 342.3405 355.2269 30.0484 279.3013 353.2646 24.8437 359.6248 7.4346 355.9397 358.3988 7.4069 354.5700 357.7967 346.4442 20.7447 357.6079 331.9235 4.9558 0.6272 21.2321 0.4857 2.3075 351.7667 342.2080 
-5.2775 86.2570 102.6065 0.2085 359.0504 180.3631 358.9796 7.3230 355.4563 3.3074 11.3796 355.0620 4.5094 356.1722 0.1242 356.5990 22.6954 0.6816 339.4512 359.1299 4.6708 312.8842 35.5694 340.4113 20.0586 352.8951 322.0989 83.2479 358.5490 345.8218 20.4134 358.6057 352.2275 68.5745 36.5043 357.7887 342.0939 355.1356 30.1227 279.4113 353.2904 24.7003 359.5715 7.4275 355.7519 358.4307 7.5824 354.3140 357.7377 346.1153 20.8532 357.4889 331.8236 4.9794 0.5842 21.6603 0.8733 2.7530 352.6125 342.3993 
-5.0607 86.1675 102.1975 0.0305 358.9303 180.5885 359.0537 7.4638 355.4277 3.2728 11.3952 355.0397 4.4856 356.1741 0.0976 356.6787 22.5697 0.5966 339.3686 359.0949 5.0218 313.8872 36.9471 339.3550 20.9375 352.5941 322.8021 82.9824 358.1760 347.0756 20.4024 358.5789 352.2455 68.5928 36.5550 357.8217 342.0448 355.1396 30.1536 279.3750 353.2829 24.7280 359.5719 7.4924 355.4943 358.4248 7.7169 354.2880 357.7132 345.7992 20.8395 357.4431 331.7364 4.9937 0.5069 22.2265 1.0701 10.7794 349.5954 342.4864 
-4.8964 86.0647 101.8421 359.7304 358.5403 180.9909 359.1772 7.3961 355.2630 3.1382 11.3560 354.8983 4.4968 356.0910 0.0001 356.6407 22.5884 0.4817 339.3641 359.0746 4.9773 314.1364 37.1755 339.0919 21.1632 352.6305 322.7571 83.0162 358.2177 347.3538 20.4169 358.5969 352.1808 68.5733 36.7204 357.9249 341.9509 355.1176 30.1196 279.3404 353.1130 24.6199 359.4035 7.1533 354.8618 358.4372 8.0021 354.3107 357.2921 345.3825 20.8660 357.0499 331.3246 4.8363 0.5571 22.7837 1.2315 12.0769 350.8955 342.5948 
-4.6777 85.9978 101.4561 359.5973 358.3495 181.2442 359.3711 7.5200 355.2010 3.0139 11.3774 354.8597 4.4863 356.1108 359.9751 356.7248 22.4688 0.4860 339.3625 359.0401 5.0902 314.3705 37.2554 338.8054 21.3068 352.6488 322.7257 83.2673 358.1227 347.6189 20.4397 358.6338 352.3925 68.5441 36.7471 357.9608 341.9223 355.0614 30.2080 279.1774 353.2388 24.5070 359.4167 7.1178 354.6075 358.5117 8.1611 354.2166 357.2070 345.1033 20.8583 356.9885 331.1191 4.9814 0.6468 23.1688 1.1528 1.1139 356.4574 343.9199 
-4.4367 85.9476 101.0813 359.5588 358.1550 181.5077 359.7035 7.7232 355.1088 2.8025 11.2663 354.8130 4.6328 356.2175 359.9148 356.6996 22.3929 0.4010 339.2824 359.0674 5.0727 314.4941 36.6471 338.6691 20.8631 352.9190 322.5679 83.3994 358.1094 347.4290 20.6334 358.6531 352.7266 68.5832 37.1089 357.6339 341.5346 354.9249 30.2765 279.0067 353.0900 23.8989 359.5641 7.0092 354.3756 358.5187 8.4168 354.0257 357.1921 344.7258 20.9782 357.0737 330.9140 5.5256 0.7955 23.5221 0.7692 0.0335 356.8048 343.4580 
-4.1789 85.9317 100.7656 359.6691 357.9628 181.6149 0.1108 8.0409 355.0918 2.7547 11.1650 354.8309 4.5724 356.1764 359.9140 356.7239 22.3435 0.4204 339.3513 359.1015 4.9638 314.0501 35.6000 338.9315 20.2946 353.1098 321.8801 83.7253 358.3915 346.9008 20.6111 358.6958 353.0099 68.5237 37.3308 357.7107 341.3323 354.8634 30.2592 278.9076 353.0693 23.5449 359.8394 6.8227 354.2442 358.5393 8.7913 353.8321 357.1348 344.3844 21.1033 357.4477 330.4482 5.8967 0.6712 24.4024 1.2426 359.5701 357.2450 342.7009 
-3.9403 85.9193 100.4272 359.7146 357.6803 181.7436 0.4849 8.1851 355.0502 2.6482 11.1676 354.8265 4.5883 356.1304 359.8601 356.7776 22.2856 0.3434 339.3559 359.1019 5.1023 314.4068 35.9687 338.3922 20.6362 352.8806 322.1396 83.6161 358.2185 347.1984 20.6370 358.7372 353.1801 68.2830 37.5335 357.9230 341.2786 354.8551 30.3143 278.7425 353.0350 23.3143 0.0103 6.6147 354.0293 358.6081 9.0405 353.7539 357.0665 344.0694 21.1932 357.6386 329.9138 6.2199 0.8705 25.3440 1.2777 358.9300 356.9493 342.4168 
-3.6901 85.9126 100.0856 359.8281 357.4554 181.7937 0.8649 8.4093 355.0362 2.6399 11.1818 354.8413 4.3990 356.0425 359.8575 357.0695 22.2744 0.2848 339.4040 359.0665 5.1404 314.4454 35.9937 338.1896 20.7292 352.8339 322.1735 83.9439 358.1975 347.3377 20.5782 358.7839 353.4700 68.1490 37.7660 358.0875 341.0571 354.7950 30.2754 278.9363 353.0608 22.9002 0.2639 6.4853 353.8945 358.6368 9.2737 353.6751 356.6996 343.5881 21.3521 357.9624 329.3811 6.4392 1.0148 26.4423 1.9472 358.1374 356.7628 341.6128 
-3.4322 85.9153 99.7513 359.9681 357.1822 181.7946 1.2715 8.5851 355.0076 2.5815 11.2237 354.8495 4.4302 355.9762 359.8762 357.0597 22.2417 0.3042 339.4034 359.0178 5.6091 315.2967 37.5267 337.1962 21.8891 352.2996 322.8957 83.4598 358.1425 348.2076 20.5611 358.8385 353.7199 67.8160 38.0726 358.3905 340.9728 354.7918 30.2519 278.7836 353.0833 22.6870 0.5169 6.2292 353.5587 358.6324 9.6438 354.0120 356.7234 343.1979 21.4137 358.3432 328.8274 6.3612 0.9959 27.3673 2.4614 357.8110 356.5197 341.3661 
-3.1804 85.9183 99.4347 0.1101 356.8723 181.7653 1.6406 8.7732 355.0061 2.5897 11.2146 354.8775 4.4384 355.9805 359.8974 357.0150 22.1213 0.3228 339.6906 359.0647 5.1655 313.8687 35.5579 338.1243 20.8753 352.9098 322.2245 84.0601 358.2863 347.0764 20.4674 358.9048 354.0348 67.6027 38.3428 358.5809 340.7361 354.7103 30.2779 279.0313 353.2052 22.4758 0.7607 6.0488 353.4892 358.7183 9.7821 354.0274 357.0510 343.1269 21.5760 358.7360 328.2975 6.1594 0.8730 28.1467 3.0143 357.3700 356.3277 341.2009 
